<svg width="518" height="383" viewBox="0 0 518 383" fill="none" xmlns="http://www.w3.org/2000/svg">
<g clip-path="url(#clip0_151_140)" filter="url(#filter0_d_151_140)">
<path d="M300.414 64.3453C309.823 64.3453 317.45 56.7205 317.45 47.3149C317.45 37.9092 309.823 30.2845 300.414 30.2845C291.006 30.2845 283.379 37.9092 283.379 47.3149C283.379 56.7205 291.006 64.3453 300.414 64.3453Z" fill="#484583"/>
<path d="M432.563 317.096C457.884 297.815 469.978 265.416 462.407 234.509C462.219 233.741 462.02 232.975 461.811 232.21C456.792 213.864 444.373 196.428 426.274 190.566C411.077 185.644 394.488 189.429 378.634 187.471C347.511 183.629 323.382 158.454 306.404 132.096C289.426 105.737 276.378 76.233 253.818 54.4572C216.632 18.5634 155.971 10.8354 109.866 34.1996C63.7601 57.5639 34.3912 109.399 35.6437 161.06C36.8963 212.72 67.5738 262.112 112.125 288.317C128.492 297.943 147.421 304.763 166.259 302.377C182.605 300.306 197.458 291.526 213.727 288.919C239.305 284.82 264.721 296.382 286.844 309.855C308.968 323.327 330.338 339.297 355.478 345.543C379.889 351.607 410.132 334.175 432.563 317.096Z" fill="#484583"/>
<path d="M396.183 35.2844C395.628 34.9145 395.066 34.5636 394.511 34.2065C378.466 23.9475 361.268 15.6133 343.272 9.37596L339.1 66.9205H312.648V0.97581C310.983 0.631384 309.305 0.306095 307.627 -6.10352e-05V66.9205H276.192C258.887 66.9205 242.29 60.048 230.054 47.815C217.817 35.582 210.942 18.9904 210.942 1.69025V1.69019C209.258 2.05375 207.586 2.44282 205.915 2.85741V66.9205H180.311L176.337 12.0485C157.844 19.1387 140.287 28.4627 124.058 39.813C123.777 40.0043 123.497 40.202 123.222 40.3934C121.812 41.382 120.421 42.3898 119.037 43.4103V262.943H194.494L193.161 244.478L185.824 143.096H333.581L326.244 244.478L324.91 262.943H399.532V37.504C398.422 36.7514 397.306 36.0115 396.183 35.2844ZM205.915 126.353H184.612L180.675 71.9465H205.915V126.353ZM307.627 126.353H271.847V125.275C271.847 124.757 271.745 124.244 271.546 123.765C271.348 123.286 271.057 122.852 270.69 122.485C270.323 122.119 269.888 121.829 269.409 121.631C268.929 121.434 268.416 121.332 267.898 121.333H252.343C251.825 121.333 251.312 121.435 250.834 121.633C250.355 121.831 249.921 122.121 249.554 122.487C249.188 122.853 248.898 123.288 248.7 123.766C248.502 124.245 248.4 124.757 248.4 125.275V126.353H210.942V71.9465H307.627V126.353ZM312.648 126.353V71.9465H338.736L334.8 126.353H312.648Z" fill="#3F3D56"/>
<path d="M8 277.001C13.5426 283.567 19.5375 289.737 25.9409 295.466L492.059 296.104C498.462 290.375 504.457 284.205 510 277.639L8 277.001Z" fill="#3F3D56"/>
<path d="M324.09 217.875V272.539C324.09 273.236 324.368 273.904 324.86 274.397C325.353 274.889 326.021 275.166 326.718 275.167H407.748C408.445 275.166 409.113 274.889 409.606 274.397C410.099 273.904 410.376 273.236 410.376 272.539V217.875C410.375 217.179 410.097 216.512 409.604 216.02C409.112 215.529 408.444 215.252 407.748 215.251H326.718C326.022 215.252 325.354 215.529 324.862 216.02C324.369 216.512 324.092 217.179 324.09 217.875Z" fill="#3F3D56"/>
<path d="M325.991 218.555V271.865C325.991 272.237 326.14 272.594 326.403 272.857C326.666 273.12 327.023 273.269 327.395 273.269H407.074C407.446 273.269 407.803 273.12 408.066 272.857C408.329 272.594 408.478 272.237 408.478 271.865V218.555C408.478 218.183 408.33 217.825 408.067 217.562C407.804 217.298 407.446 217.149 407.074 217.148H327.395C327.023 217.149 326.665 217.298 326.402 217.562C326.139 217.825 325.991 218.183 325.991 218.555Z" fill="#6C63FF"/>
<path d="M322.395 283.2C322.544 283.386 322.732 283.536 322.947 283.639C323.162 283.742 323.397 283.795 323.635 283.793H410.4C410.637 283.793 410.871 283.74 411.085 283.638C411.299 283.536 411.488 283.387 411.637 283.203C411.787 283.019 411.893 282.803 411.949 282.573C412.005 282.342 412.009 282.102 411.96 281.87L410.613 275.474C410.557 275.214 410.437 274.971 410.264 274.768C410.09 274.566 409.868 274.41 409.619 274.315C409.439 274.244 409.247 274.208 409.053 274.208H324.977C324.783 274.208 324.591 274.244 324.41 274.315C324.161 274.41 323.939 274.566 323.766 274.768C323.592 274.971 323.472 275.213 323.416 275.474L322.069 281.87C322.021 282.102 322.026 282.342 322.082 282.572C322.138 282.802 322.245 283.017 322.395 283.2Z" fill="#2F2E41"/>
<path d="M406.076 276.963H408.125C408.297 276.963 408.436 276.823 408.436 276.651V275.671C408.436 275.499 408.297 275.36 408.125 275.36H406.076C405.904 275.36 405.764 275.499 405.764 275.671V276.651C405.764 276.823 405.904 276.963 406.076 276.963Z" fill="#3F3D56"/>
<path d="M400.731 276.963H402.78C402.952 276.963 403.092 276.823 403.092 276.651V275.671C403.092 275.499 402.952 275.36 402.78 275.36H400.731C400.559 275.36 400.42 275.499 400.42 275.671V276.651C400.42 276.823 400.559 276.963 400.731 276.963Z" fill="#3F3D56"/>
<path d="M395.386 276.963H397.436C397.608 276.963 397.747 276.823 397.747 276.651V275.671C397.747 275.499 397.608 275.36 397.436 275.36H395.386C395.214 275.36 395.075 275.499 395.075 275.671V276.651C395.075 276.823 395.214 276.963 395.386 276.963Z" fill="#3F3D56"/>
<path d="M390.042 276.963H392.091C392.263 276.963 392.403 276.823 392.403 276.651V275.671C392.403 275.499 392.263 275.36 392.091 275.36H390.042C389.87 275.36 389.73 275.499 389.73 275.671V276.651C389.73 276.823 389.87 276.963 390.042 276.963Z" fill="#3F3D56"/>
<path d="M384.697 276.963H386.747C386.919 276.963 387.058 276.823 387.058 276.651V275.671C387.058 275.499 386.919 275.36 386.747 275.36H384.697C384.525 275.36 384.386 275.499 384.386 275.671V276.651C384.386 276.823 384.525 276.963 384.697 276.963Z" fill="#3F3D56"/>
<path d="M379.353 276.963H381.402C381.574 276.963 381.713 276.823 381.713 276.651V275.671C381.713 275.499 381.574 275.36 381.402 275.36H379.353C379.181 275.36 379.041 275.499 379.041 275.671V276.651C379.041 276.823 379.181 276.963 379.353 276.963Z" fill="#3F3D56"/>
<path d="M374.008 276.963H376.057C376.229 276.963 376.369 276.823 376.369 276.651V275.671C376.369 275.499 376.229 275.36 376.057 275.36H374.008C373.836 275.36 373.696 275.499 373.696 275.671V276.651C373.696 276.823 373.836 276.963 374.008 276.963Z" fill="#3F3D56"/>
<path d="M368.663 276.963H370.713C370.885 276.963 371.024 276.823 371.024 276.651V275.671C371.024 275.499 370.885 275.36 370.713 275.36H368.663C368.491 275.36 368.352 275.499 368.352 275.671V276.651C368.352 276.823 368.491 276.963 368.663 276.963Z" fill="#3F3D56"/>
<path d="M363.319 276.963H365.368C365.54 276.963 365.68 276.823 365.68 276.651V275.671C365.68 275.499 365.54 275.36 365.368 275.36H363.319C363.147 275.36 363.007 275.499 363.007 275.671V276.651C363.007 276.823 363.147 276.963 363.319 276.963Z" fill="#3F3D56"/>
<path d="M357.974 276.963H360.023C360.195 276.963 360.335 276.823 360.335 276.651V275.671C360.335 275.499 360.195 275.36 360.023 275.36H357.974C357.802 275.36 357.663 275.499 357.663 275.671V276.651C357.663 276.823 357.802 276.963 357.974 276.963Z" fill="#3F3D56"/>
<path d="M352.63 276.963H354.679C354.851 276.963 354.99 276.823 354.99 276.651V275.671C354.99 275.499 354.851 275.36 354.679 275.36H352.63C352.458 275.36 352.318 275.499 352.318 275.671V276.651C352.318 276.823 352.458 276.963 352.63 276.963Z" fill="#3F3D56"/>
<path d="M347.285 276.963H349.334C349.506 276.963 349.646 276.823 349.646 276.651V275.671C349.646 275.499 349.506 275.36 349.334 275.36H347.285C347.113 275.36 346.973 275.499 346.973 275.671V276.651C346.973 276.823 347.113 276.963 347.285 276.963Z" fill="#3F3D56"/>
<path d="M341.94 276.963H343.99C344.162 276.963 344.301 276.823 344.301 276.651V275.671C344.301 275.499 344.162 275.36 343.99 275.36H341.94C341.768 275.36 341.629 275.499 341.629 275.671V276.651C341.629 276.823 341.768 276.963 341.94 276.963Z" fill="#3F3D56"/>
<path d="M336.596 276.963H338.645C338.817 276.963 338.957 276.823 338.957 276.651V275.671C338.957 275.499 338.817 275.36 338.645 275.36H336.596C336.424 275.36 336.284 275.499 336.284 275.671V276.651C336.284 276.823 336.424 276.963 336.596 276.963Z" fill="#3F3D56"/>
<path d="M331.251 276.963H333.3C333.473 276.963 333.612 276.823 333.612 276.651V275.671C333.612 275.499 333.473 275.36 333.3 275.36H331.251C331.079 275.36 330.94 275.499 330.94 275.671V276.651C330.94 276.823 331.079 276.963 331.251 276.963Z" fill="#3F3D56"/>
<path d="M325.907 276.963H327.956C328.128 276.963 328.267 276.823 328.267 276.651V275.671C328.267 275.499 328.128 275.36 327.956 275.36H325.907C325.735 275.36 325.595 275.499 325.595 275.671V276.651C325.595 276.823 325.735 276.963 325.907 276.963Z" fill="#3F3D56"/>
<path d="M406.139 279.634H408.188C408.36 279.634 408.5 279.495 408.5 279.323V278.343C408.5 278.171 408.36 278.031 408.188 278.031H406.139C405.967 278.031 405.827 278.171 405.827 278.343V279.323C405.827 279.495 405.967 279.634 406.139 279.634Z" fill="#3F3D56"/>
<path d="M400.794 279.634H402.844C403.016 279.634 403.155 279.495 403.155 279.323V278.343C403.155 278.171 403.016 278.031 402.844 278.031H400.794C400.622 278.031 400.483 278.171 400.483 278.343V279.323C400.483 279.495 400.622 279.634 400.794 279.634Z" fill="#3F3D56"/>
<path d="M395.45 279.634H397.499C397.671 279.634 397.81 279.495 397.81 279.323V278.343C397.81 278.171 397.671 278.031 397.499 278.031H395.45C395.278 278.031 395.138 278.171 395.138 278.343V279.323C395.138 279.495 395.278 279.634 395.45 279.634Z" fill="#3F3D56"/>
<path d="M390.105 279.634H392.154C392.326 279.634 392.466 279.495 392.466 279.323V278.343C392.466 278.171 392.326 278.031 392.154 278.031H390.105C389.933 278.031 389.793 278.171 389.793 278.343V279.323C389.793 279.495 389.933 279.634 390.105 279.634Z" fill="#3F3D56"/>
<path d="M384.76 279.634H386.81C386.982 279.634 387.121 279.495 387.121 279.323V278.343C387.121 278.171 386.982 278.031 386.81 278.031H384.76C384.588 278.031 384.449 278.171 384.449 278.343V279.323C384.449 279.495 384.588 279.634 384.76 279.634Z" fill="#3F3D56"/>
<path d="M379.416 279.634H381.465C381.637 279.634 381.777 279.495 381.777 279.323V278.343C381.777 278.171 381.637 278.031 381.465 278.031H379.416C379.244 278.031 379.104 278.171 379.104 278.343V279.323C379.104 279.495 379.244 279.634 379.416 279.634Z" fill="#3F3D56"/>
<path d="M374.071 279.634H376.12C376.292 279.634 376.432 279.495 376.432 279.323V278.343C376.432 278.171 376.292 278.031 376.12 278.031H374.071C373.899 278.031 373.76 278.171 373.76 278.343V279.323C373.76 279.495 373.899 279.634 374.071 279.634Z" fill="#3F3D56"/>
<path d="M368.726 279.634H370.776C370.948 279.634 371.087 279.495 371.087 279.323V278.343C371.087 278.171 370.948 278.031 370.776 278.031H368.726C368.554 278.031 368.415 278.171 368.415 278.343V279.323C368.415 279.495 368.554 279.634 368.726 279.634Z" fill="#3F3D56"/>
<path d="M363.382 279.634H365.431C365.603 279.634 365.743 279.495 365.743 279.323V278.343C365.743 278.171 365.603 278.031 365.431 278.031H363.382C363.21 278.031 363.07 278.171 363.07 278.343V279.323C363.07 279.495 363.21 279.634 363.382 279.634Z" fill="#3F3D56"/>
<path d="M358.037 279.634H360.087C360.259 279.634 360.398 279.495 360.398 279.323V278.343C360.398 278.171 360.259 278.031 360.087 278.031H358.037C357.865 278.031 357.726 278.171 357.726 278.343V279.323C357.726 279.495 357.865 279.634 358.037 279.634Z" fill="#3F3D56"/>
<path d="M352.693 279.634H354.742C354.914 279.634 355.053 279.495 355.053 279.323V278.343C355.053 278.171 354.914 278.031 354.742 278.031H352.693C352.521 278.031 352.381 278.171 352.381 278.343V279.323C352.381 279.495 352.521 279.634 352.693 279.634Z" fill="#3F3D56"/>
<path d="M347.348 279.634H349.397C349.57 279.634 349.709 279.495 349.709 279.323V278.343C349.709 278.171 349.57 278.031 349.397 278.031H347.348C347.176 278.031 347.037 278.171 347.037 278.343V279.323C347.037 279.495 347.176 279.634 347.348 279.634Z" fill="#3F3D56"/>
<path d="M342.004 279.634H344.053C344.225 279.634 344.364 279.495 344.364 279.323V278.343C344.364 278.171 344.225 278.031 344.053 278.031H342.004C341.831 278.031 341.692 278.171 341.692 278.343V279.323C341.692 279.495 341.831 279.634 342.004 279.634Z" fill="#3F3D56"/>
<path d="M336.659 279.634H338.708C338.88 279.634 339.02 279.495 339.02 279.323V278.343C339.02 278.171 338.88 278.031 338.708 278.031H336.659C336.487 278.031 336.347 278.171 336.347 278.343V279.323C336.347 279.495 336.487 279.634 336.659 279.634Z" fill="#3F3D56"/>
<path d="M331.314 279.634H333.364C333.536 279.634 333.675 279.495 333.675 279.323V278.343C333.675 278.171 333.536 278.031 333.364 278.031H331.314C331.142 278.031 331.003 278.171 331.003 278.343V279.323C331.003 279.495 331.142 279.634 331.314 279.634Z" fill="#3F3D56"/>
<path d="M325.97 279.634H328.019C328.191 279.634 328.331 279.495 328.331 279.323V278.343C328.331 278.171 328.191 278.031 328.019 278.031H325.97C325.798 278.031 325.658 278.171 325.658 278.343V279.323C325.658 279.495 325.798 279.634 325.97 279.634Z" fill="#3F3D56"/>
<path d="M361.779 282.84H382.534C382.706 282.84 382.845 282.701 382.845 282.529V281.549C382.845 281.377 382.706 281.237 382.534 281.237H361.779C361.607 281.237 361.467 281.377 361.467 281.549V282.529C361.467 282.701 361.607 282.84 361.779 282.84Z" fill="#3F3D56"/>
<path d="M339.789 228.811H337.974C337.424 228.811 336.978 229.257 336.978 229.807C336.978 230.357 337.424 230.803 337.974 230.803H339.789C340.339 230.803 340.785 230.357 340.785 229.807C340.785 229.257 340.339 228.811 339.789 228.811Z" fill="white"/>
<path d="M360.539 228.811H358.724C358.174 228.811 357.728 229.257 357.728 229.807C357.728 230.357 358.174 230.803 358.724 230.803H360.539C361.089 230.803 361.535 230.357 361.535 229.807C361.535 229.257 361.089 228.811 360.539 228.811Z" fill="white"/>
<path d="M366.418 228.811H364.604C364.054 228.811 363.608 229.257 363.608 229.807C363.608 230.357 364.054 230.803 364.604 230.803H366.418C366.968 230.803 367.414 230.357 367.414 229.807C367.414 229.257 366.968 228.811 366.418 228.811Z" fill="white"/>
<path d="M354.895 228.645H343.618C343.068 228.645 342.622 229.091 342.622 229.641C342.622 230.191 343.068 230.637 343.618 230.637H354.895C355.445 230.637 355.891 230.191 355.891 229.641C355.891 229.091 355.445 228.645 354.895 228.645Z" fill="white"/>
<path d="M382.561 228.645H371.285C370.735 228.645 370.289 229.091 370.289 229.641C370.289 230.191 370.735 230.637 371.285 230.637H382.561C383.111 230.637 383.557 230.191 383.557 229.641C383.557 229.091 383.111 228.645 382.561 228.645Z" fill="white"/>
<path d="M345.322 233.306H343.508C342.958 233.306 342.512 233.752 342.512 234.301C342.512 234.851 342.958 235.297 343.508 235.297H345.322C345.872 235.297 346.318 234.851 346.318 234.301C346.318 233.752 345.872 233.306 345.322 233.306Z" fill="white"/>
<path d="M366.072 233.306H364.258C363.708 233.306 363.262 233.752 363.262 234.301C363.262 234.851 363.708 235.297 364.258 235.297H366.072C366.622 235.297 367.068 234.851 367.068 234.301C367.068 233.752 366.622 233.306 366.072 233.306Z" fill="white"/>
<path d="M371.951 233.306H370.137C369.587 233.306 369.141 233.752 369.141 234.301C369.141 234.851 369.587 235.297 370.137 235.297H371.951C372.501 235.297 372.947 234.851 372.947 234.301C372.947 233.752 372.501 233.306 371.951 233.306Z" fill="white"/>
<path d="M360.428 233.14H349.152C348.602 233.14 348.156 233.586 348.156 234.135C348.156 234.685 348.602 235.131 349.152 235.131H360.428C360.978 235.131 361.424 234.685 361.424 234.135C361.424 233.586 360.978 233.14 360.428 233.14Z" fill="white"/>
<path d="M388.095 233.14H376.819C376.268 233.14 375.823 233.586 375.823 234.135C375.823 234.685 376.268 235.131 376.819 235.131H388.095C388.645 235.131 389.091 234.685 389.091 234.135C389.091 233.586 388.645 233.14 388.095 233.14Z" fill="white"/>
<path d="M350.855 237.8H349.041C348.491 237.8 348.045 238.246 348.045 238.796C348.045 239.346 348.491 239.792 349.041 239.792H350.855C351.405 239.792 351.851 239.346 351.851 238.796C351.851 238.246 351.405 237.8 350.855 237.8Z" fill="white"/>
<path d="M371.605 237.8H369.791C369.241 237.8 368.795 238.246 368.795 238.796C368.795 239.346 369.241 239.792 369.791 239.792H371.605C372.156 239.792 372.601 239.346 372.601 238.796C372.601 238.246 372.156 237.8 371.605 237.8Z" fill="white"/>
<path d="M377.485 237.8H375.67C375.12 237.8 374.674 238.246 374.674 238.796C374.674 239.346 375.12 239.792 375.67 239.792H377.485C378.035 239.792 378.481 239.346 378.481 238.796C378.481 238.246 378.035 237.8 377.485 237.8Z" fill="white"/>
<path d="M365.961 237.634H354.685C354.135 237.634 353.689 238.08 353.689 238.63C353.689 239.18 354.135 239.626 354.685 239.626H365.961C366.511 239.626 366.957 239.18 366.957 238.63C366.957 238.08 366.511 237.634 365.961 237.634Z" fill="white"/>
<path d="M393.628 237.634H382.352C381.802 237.634 381.356 238.08 381.356 238.63C381.356 239.18 381.802 239.626 382.352 239.626H393.628C394.178 239.626 394.624 239.18 394.624 238.63C394.624 238.08 394.178 237.634 393.628 237.634Z" fill="white"/>
<path d="M356.389 242.295H354.574C354.024 242.295 353.578 242.741 353.578 243.291C353.578 243.84 354.024 244.286 354.574 244.286H356.389C356.939 244.286 357.385 243.84 357.385 243.291C357.385 242.741 356.939 242.295 356.389 242.295Z" fill="white"/>
<path d="M377.139 242.295H375.324C374.774 242.295 374.328 242.741 374.328 243.291C374.328 243.84 374.774 244.286 375.324 244.286H377.139C377.689 244.286 378.135 243.84 378.135 243.291C378.135 242.741 377.689 242.295 377.139 242.295Z" fill="white"/>
<path d="M383.018 242.295H381.204C380.654 242.295 380.208 242.741 380.208 243.291C380.208 243.84 380.654 244.286 381.204 244.286H383.018C383.568 244.286 384.014 243.84 384.014 243.291C384.014 242.741 383.568 242.295 383.018 242.295Z" fill="white"/>
<path d="M371.495 242.129H360.218C359.668 242.129 359.223 242.575 359.223 243.125C359.223 243.674 359.668 244.12 360.218 244.12H371.495C372.045 244.12 372.491 243.674 372.491 243.125C372.491 242.575 372.045 242.129 371.495 242.129Z" fill="white"/>
<path d="M360.539 260.167H358.724C358.174 260.167 357.728 260.613 357.728 261.163C357.728 261.713 358.174 262.158 358.724 262.158H360.539C361.089 262.158 361.535 261.713 361.535 261.163C361.535 260.613 361.089 260.167 360.539 260.167Z" fill="white"/>
<path d="M366.418 260.167H364.604C364.054 260.167 363.608 260.613 363.608 261.163C363.608 261.713 364.054 262.158 364.604 262.158H366.418C366.968 262.158 367.414 261.713 367.414 261.163C367.414 260.613 366.968 260.167 366.418 260.167Z" fill="white"/>
<path d="M382.561 260.333H371.285C370.735 260.333 370.289 260.779 370.289 261.329C370.289 261.879 370.735 262.324 371.285 262.324H382.561C383.111 262.324 383.557 261.879 383.557 261.329C383.557 260.779 383.111 260.333 382.561 260.333Z" fill="white"/>
<path d="M339.789 260.167H337.974C337.424 260.167 336.978 260.613 336.978 261.163C336.978 261.713 337.424 262.158 337.974 262.158H339.789C340.339 262.158 340.785 261.713 340.785 261.163C340.785 260.613 340.339 260.167 339.789 260.167Z" fill="white"/>
<path d="M354.895 260.333H343.618C343.068 260.333 342.622 260.779 342.622 261.329C342.622 261.879 343.068 262.324 343.618 262.324H354.895C355.445 262.324 355.891 261.879 355.891 261.329C355.891 260.779 355.445 260.333 354.895 260.333Z" fill="white"/>
<path d="M345.322 255.672H343.508C342.958 255.672 342.512 256.118 342.512 256.668C342.512 257.218 342.958 257.664 343.508 257.664H345.322C345.872 257.664 346.318 257.218 346.318 256.668C346.318 256.118 345.872 255.672 345.322 255.672Z" fill="white"/>
<path d="M366.072 255.672H364.258C363.708 255.672 363.262 256.118 363.262 256.668C363.262 257.218 363.708 257.664 364.258 257.664H366.072C366.622 257.664 367.068 257.218 367.068 256.668C367.068 256.118 366.622 255.672 366.072 255.672Z" fill="white"/>
<path d="M371.951 255.672H370.137C369.587 255.672 369.141 256.118 369.141 256.668C369.141 257.218 369.587 257.664 370.137 257.664H371.951C372.501 257.664 372.947 257.218 372.947 256.668C372.947 256.118 372.501 255.672 371.951 255.672Z" fill="white"/>
<path d="M360.428 255.839H349.152C348.602 255.839 348.156 256.284 348.156 256.834C348.156 257.384 348.602 257.83 349.152 257.83H360.428C360.978 257.83 361.424 257.384 361.424 256.834C361.424 256.284 360.978 255.839 360.428 255.839Z" fill="white"/>
<path d="M350.855 251.178H349.041C348.491 251.178 348.045 251.624 348.045 252.174C348.045 252.724 348.491 253.169 349.041 253.169H350.855C351.405 253.169 351.851 252.724 351.851 252.174C351.851 251.624 351.405 251.178 350.855 251.178Z" fill="white"/>
<path d="M371.605 251.178H369.791C369.241 251.178 368.795 251.624 368.795 252.174C368.795 252.724 369.241 253.169 369.791 253.169H371.605C372.156 253.169 372.601 252.724 372.601 252.174C372.601 251.624 372.156 251.178 371.605 251.178Z" fill="white"/>
<path d="M377.485 251.178H375.67C375.12 251.178 374.674 251.624 374.674 252.174C374.674 252.724 375.12 253.169 375.67 253.169H377.485C378.035 253.169 378.481 252.724 378.481 252.174C378.481 251.624 378.035 251.178 377.485 251.178Z" fill="white"/>
<path d="M365.961 251.344H354.685C354.135 251.344 353.689 251.79 353.689 252.34C353.689 252.89 354.135 253.335 354.685 253.335H365.961C366.511 253.335 366.957 252.89 366.957 252.34C366.957 251.79 366.511 251.344 365.961 251.344Z" fill="white"/>
<path d="M356.389 246.683H354.574C354.024 246.683 353.578 247.129 353.578 247.679C353.578 248.229 354.024 248.675 354.574 248.675H356.389C356.939 248.675 357.385 248.229 357.385 247.679C357.385 247.129 356.939 246.683 356.389 246.683Z" fill="white"/>
<path d="M377.139 246.683H375.324C374.774 246.683 374.328 247.129 374.328 247.679C374.328 248.229 374.774 248.675 375.324 248.675H377.139C377.689 248.675 378.135 248.229 378.135 247.679C378.135 247.129 377.689 246.683 377.139 246.683Z" fill="white"/>
<path d="M383.018 246.683H381.204C380.654 246.683 380.208 247.129 380.208 247.679C380.208 248.229 380.654 248.675 381.204 248.675H383.018C383.568 248.675 384.014 248.229 384.014 247.679C384.014 247.129 383.568 246.683 383.018 246.683Z" fill="white"/>
<path d="M371.495 246.849H360.218C359.668 246.849 359.223 247.295 359.223 247.845C359.223 248.395 359.668 248.841 360.218 248.841H371.495C372.045 248.841 372.491 248.395 372.491 247.845C372.491 247.295 372.045 246.849 371.495 246.849Z" fill="white"/>
<path d="M330.143 312.841L321.626 299.382L348.36 278.077L359.394 265.855C360.828 264.268 362.653 263.084 364.688 262.422C366.723 261.761 368.895 261.644 370.989 262.085C373.083 262.526 375.024 263.508 376.619 264.934C378.213 266.36 379.406 268.18 380.077 270.21C381.072 273.22 380.858 276.498 379.481 279.353C378.104 282.208 375.671 284.417 372.695 285.513L355.247 291.939L330.143 312.841Z" fill="#FFB6B6"/>
<path d="M130.3 215.253V280.669H176.141V215.253C176.142 214.783 175.992 214.325 175.713 213.946C175.434 213.567 175.041 213.288 174.591 213.149C174.379 213.079 174.157 213.044 173.934 213.047H132.514C132.224 213.046 131.936 213.103 131.668 213.213C131.399 213.324 131.155 213.486 130.95 213.691C130.744 213.896 130.581 214.14 130.47 214.408C130.358 214.676 130.301 214.963 130.3 215.253ZM148.19 237.73C148.202 236.441 148.723 235.208 149.639 234.3C150.556 233.393 151.794 232.883 153.084 232.883C154.374 232.883 155.612 233.393 156.528 234.3C157.444 235.208 157.965 236.441 157.977 237.73V245.321C157.971 246.614 157.452 247.852 156.535 248.764C155.618 249.676 154.377 250.188 153.084 250.188C151.79 250.188 150.549 249.676 149.632 248.764C148.715 247.852 148.197 246.614 148.19 245.321V237.73Z" fill="#2F2E41"/>
<path d="M130.16 278.577V284.885C130.161 285.212 130.291 285.525 130.521 285.756C130.752 285.988 131.065 286.12 131.391 286.122H175.051C175.378 286.121 175.691 285.989 175.922 285.758C176.152 285.526 176.282 285.212 176.282 284.885V278.577H130.16Z" fill="#3F3D56"/>
<path d="M58.186 116.697V236.136C58.1872 237.658 58.7925 239.117 59.8691 240.194C60.9457 241.27 62.4055 241.875 63.9281 241.876H240.976C242.499 241.875 243.959 241.27 245.035 240.194C246.112 239.117 246.717 237.658 246.718 236.136V116.697C246.715 115.176 246.108 113.719 245.032 112.644C243.956 111.569 242.497 110.965 240.976 110.963H63.9281C62.4069 110.965 60.9484 111.569 59.8722 112.644C58.7959 113.719 58.1896 115.176 58.186 116.697Z" fill="#3F3D56"/>
<path d="M62.3394 118.183V234.663C62.3408 235.476 62.6646 236.255 63.2398 236.83C63.815 237.405 64.5948 237.729 65.4082 237.73H239.502C240.316 237.729 241.096 237.405 241.671 236.83C242.246 236.255 242.57 235.476 242.571 234.663V118.183C242.571 117.369 242.248 116.588 241.673 116.012C241.097 115.435 240.317 115.11 239.502 115.109H65.4082C64.5938 115.11 63.8133 115.435 63.238 116.012C62.6626 116.588 62.3395 117.369 62.3394 118.183Z" fill="#282A36"/>
<path d="M94.6483 285.695C94.8255 285.917 95.0507 286.096 95.3071 286.219C95.5635 286.341 95.8443 286.404 96.1285 286.403H199.703C199.987 286.402 200.266 286.339 200.522 286.217C200.777 286.095 201.003 285.918 201.181 285.698C201.359 285.478 201.487 285.221 201.553 284.946C201.62 284.67 201.624 284.384 201.566 284.107L199.958 276.472C199.892 276.161 199.748 275.871 199.541 275.629C199.334 275.387 199.069 275.201 198.772 275.088C198.556 275.003 198.327 274.96 198.095 274.96H97.7299C97.4985 274.96 97.2691 275.003 97.0536 275.088C96.756 275.201 96.4915 275.387 96.2843 275.629C96.077 275.871 95.9335 276.161 95.8669 276.472L94.2591 284.107C94.2019 284.384 94.2072 284.67 94.2745 284.945C94.3418 285.219 94.4695 285.476 94.6483 285.695Z" fill="#2F2E41"/>
<path d="M233.853 131.154H70.9533C70.784 131.15 70.6228 131.081 70.5044 130.96C70.386 130.839 70.3197 130.676 70.3197 130.507C70.3197 130.337 70.386 130.175 70.5044 130.054C70.6228 129.933 70.784 129.863 70.9533 129.859H233.853C234.022 129.863 234.183 129.933 234.301 130.054C234.42 130.175 234.486 130.337 234.486 130.507C234.486 130.676 234.42 130.839 234.301 130.96C234.183 131.081 234.022 131.15 233.853 131.154Z" fill="#3F3D56"/>
<path d="M82.042 126.552C84.1388 126.552 85.8385 124.815 85.8385 122.673C85.8385 120.53 84.1388 118.793 82.042 118.793C79.9453 118.793 78.2456 120.53 78.2456 122.673C78.2456 124.815 79.9453 126.552 82.042 126.552Z" fill="#3F3D56"/>
<path d="M95.157 126.552C97.2537 126.552 98.9535 124.815 98.9535 122.673C98.9535 120.53 97.2537 118.793 95.157 118.793C93.0603 118.793 91.3606 120.53 91.3606 122.673C91.3606 124.815 93.0603 126.552 95.157 126.552Z" fill="#3F3D56"/>
<path d="M108.272 126.552C110.369 126.552 112.068 124.815 112.068 122.673C112.068 120.53 110.369 118.793 108.272 118.793C106.175 118.793 104.476 120.53 104.476 122.673C104.476 124.815 106.175 126.552 108.272 126.552Z" fill="#3F3D56"/>
<path d="M225.955 119.752H216.64C216.456 119.756 216.281 119.832 216.152 119.964C216.023 120.096 215.951 120.273 215.951 120.457C215.951 120.641 216.023 120.818 216.152 120.95C216.281 121.081 216.456 121.157 216.64 121.162H225.955C226.14 121.159 226.317 121.084 226.447 120.952C226.577 120.82 226.65 120.642 226.65 120.457C226.65 120.272 226.577 120.094 226.447 119.962C226.317 119.83 226.14 119.755 225.955 119.752Z" fill="#3F3D56"/>
<path d="M225.955 122.399H216.64C216.456 122.403 216.28 122.479 216.152 122.611C216.023 122.743 215.951 122.92 215.951 123.104C215.951 123.288 216.023 123.465 216.152 123.597C216.28 123.729 216.456 123.805 216.64 123.809H225.955C226.141 123.806 226.318 123.731 226.448 123.599C226.579 123.467 226.652 123.289 226.652 123.104C226.652 122.918 226.579 122.74 226.448 122.608C226.318 122.477 226.141 122.401 225.955 122.399Z" fill="#3F3D56"/>
<path d="M225.955 125.046H216.64C216.456 125.05 216.281 125.126 216.152 125.258C216.023 125.39 215.951 125.567 215.951 125.751C215.951 125.935 216.023 126.112 216.152 126.243C216.281 126.375 216.456 126.451 216.64 126.456H225.955C226.14 126.453 226.317 126.378 226.447 126.246C226.577 126.114 226.65 125.936 226.65 125.751C226.65 125.566 226.577 125.388 226.447 125.256C226.317 125.124 226.14 125.049 225.955 125.046Z" fill="#3F3D56"/>
<path d="M450.522 281.345C450.803 282.163 451.336 282.871 452.045 283.368C452.754 283.864 453.602 284.123 454.467 284.108L471.369 283.673C472.24 283.656 473.083 283.357 473.771 282.822C474.459 282.286 474.955 281.543 475.185 280.702L477.577 255.134C478.425 255.518 479.349 255.708 480.28 255.689C481.09 255.669 481.887 255.489 482.627 255.161C483.367 254.833 484.035 254.362 484.592 253.776C485.15 253.189 485.587 252.499 485.878 251.743C486.169 250.988 486.308 250.183 486.288 249.374C486.268 248.565 486.088 247.768 485.76 247.029C485.431 246.289 484.96 245.621 484.374 245.064C483.787 244.506 483.096 244.069 482.341 243.778C481.586 243.488 480.78 243.348 479.971 243.369C479.599 243.367 479.227 243.406 478.863 243.484C478.467 243.056 477.986 242.715 477.451 242.484C476.915 242.253 476.337 242.137 475.754 242.142L449.754 242.814C449.539 242.822 449.324 242.848 449.113 242.893C448.543 242.999 448.002 243.227 447.527 243.559C447.052 243.892 446.654 244.323 446.359 244.822C446.065 245.321 445.881 245.878 445.819 246.455C445.758 247.031 445.821 247.614 446.004 248.165L450.522 281.345ZM478.067 253.398L479.769 247.305C479.963 246.601 479.967 245.858 479.782 245.152C479.865 245.152 479.937 245.113 480.02 245.113C481.187 245.089 482.316 245.528 483.159 246.335C484.003 247.142 484.492 248.25 484.519 249.416C484.546 250.583 484.11 251.713 483.305 252.558C482.5 253.403 481.393 253.895 480.226 253.926C479.472 253.949 478.725 253.767 478.067 253.398Z" fill="#2F2E41"/>
<path d="M449.113 242.893C449.667 246.059 455.895 248.285 463.383 247.898C470.269 247.581 475.899 245.164 476.93 242.299C476.549 242.186 476.152 242.133 475.754 242.142L449.754 242.814C449.539 242.822 449.324 242.848 449.113 242.893Z" fill="#3F3D56"/>
<path d="M464.755 267.295C464.789 267.286 464.822 267.272 464.851 267.253L468.522 264.851C468.566 264.822 468.603 264.782 468.628 264.736C468.653 264.689 468.666 264.637 468.666 264.584C468.666 264.531 468.653 264.479 468.628 264.433C468.603 264.386 468.566 264.346 468.522 264.317L464.707 261.819C464.672 261.796 464.633 261.78 464.591 261.772C464.55 261.764 464.508 261.764 464.467 261.773C464.426 261.781 464.387 261.798 464.352 261.821C464.317 261.845 464.287 261.875 464.264 261.91C464.241 261.945 464.226 261.985 464.218 262.026C464.21 262.067 464.21 262.11 464.219 262.151C464.228 262.192 464.244 262.231 464.268 262.265C464.292 262.3 464.322 262.33 464.357 262.352L467.765 264.584L464.502 266.719C464.439 266.76 464.393 266.823 464.371 266.895C464.349 266.967 464.354 267.045 464.385 267.114C464.415 267.183 464.469 267.239 464.537 267.272C464.605 267.305 464.682 267.314 464.755 267.295H464.755Z" fill="#6C63FF"/>
<path d="M458.958 267.562C459.019 267.547 459.075 267.513 459.117 267.466C459.159 267.418 459.187 267.359 459.195 267.297C459.204 267.234 459.194 267.17 459.166 267.113C459.138 267.055 459.093 267.008 459.038 266.977L455.655 265.037L458.925 262.609C458.958 262.584 458.987 262.553 459.008 262.517C459.03 262.481 459.044 262.441 459.05 262.4C459.056 262.358 459.054 262.316 459.044 262.275C459.034 262.235 459.016 262.197 458.991 262.163C458.966 262.129 458.934 262.101 458.898 262.08C458.862 262.058 458.823 262.044 458.781 262.038C458.74 262.032 458.698 262.034 458.657 262.044C458.616 262.054 458.578 262.072 458.545 262.097L454.883 264.816C454.841 264.848 454.807 264.889 454.784 264.937C454.762 264.985 454.752 265.038 454.755 265.091C454.758 265.144 454.774 265.195 454.802 265.24C454.83 265.285 454.869 265.322 454.915 265.349L458.721 267.53C458.792 267.571 458.877 267.583 458.958 267.562Z" fill="#6C63FF"/>
<path d="M464.39 269.4C464.421 269.392 464.45 269.38 464.477 269.363C464.513 269.341 464.544 269.313 464.569 269.279C464.594 269.245 464.612 269.207 464.622 269.166C464.632 269.125 464.633 269.083 464.627 269.042C464.621 269 464.606 268.96 464.584 268.925L459.381 260.372C459.337 260.3 459.266 260.249 459.184 260.229C459.102 260.209 459.015 260.223 458.943 260.267C458.87 260.311 458.819 260.381 458.799 260.463C458.779 260.546 458.792 260.632 458.836 260.705L464.039 269.257C464.075 269.315 464.128 269.36 464.191 269.386C464.254 269.412 464.324 269.417 464.39 269.4Z" fill="#6C63FF"/>
<path d="M171.867 166.362H143.672C142.522 166.362 141.59 167.294 141.59 168.444V171.198C141.59 172.347 142.522 173.28 143.672 173.28H171.867C173.017 173.28 173.949 172.347 173.949 171.198V168.444C173.949 167.294 173.017 166.362 171.867 166.362Z" fill="#6C63FF"/>
<path d="M188.301 180.197H127.238C126.088 180.197 125.155 181.129 125.155 182.279V185.033C125.155 186.183 126.088 187.115 127.238 187.115H188.301C189.451 187.115 190.383 186.183 190.383 185.033V182.279C190.383 181.129 189.451 180.197 188.301 180.197Z" fill="#E6E6E6"/>
<path d="M188.301 194.033H127.238C126.088 194.033 125.155 194.965 125.155 196.115V198.868C125.155 200.018 126.088 200.95 127.238 200.95H188.301C189.451 200.95 190.383 200.018 190.383 198.868V196.115C190.383 194.965 189.451 194.033 188.301 194.033Z" fill="#E6E6E6"/>
<path d="M193.477 240.361L193.615 240.798L193.623 240.813L197.786 253.466L202.575 268.047L211.585 295.449L211.673 299.705V299.72L212.342 333.961L210.486 338.603L212.575 346.214C212.575 346.214 211.614 334.71 206.461 341.316C203.543 345.071 200.129 348.913 197.327 352.514C201.41 354.166 205.559 355.66 209.773 356.996C210.683 357.287 211.6 357.564 212.517 357.84C212.713 357.899 212.91 357.957 213.106 358.015C227.076 362.145 241.517 364.465 256.077 364.92C256.834 364.942 257.576 364.956 258.297 364.971C258.552 364.978 258.799 364.985 259.047 364.985C259.862 364.993 260.67 365 261.485 365C263.13 365 264.767 364.976 266.398 364.927C278.464 364.587 290.461 362.965 302.185 360.089C302.105 355.25 301.886 349.597 301.573 343.557C301.428 340.596 298.16 337.387 297.963 334.288C297.825 331.959 300.758 329.769 300.605 327.404C299.615 312.845 298.378 318.434 297.461 308.124C297.366 307.112 297.279 306.145 297.199 305.221C296.609 298.599 296.202 294.459 296.202 294.459L300.118 269.786L306.268 231.048L305.795 230.27L305.263 230.008L272.824 213.957L271.063 209.445C270.55 208.146 269.659 207.029 268.506 206.24C267.353 205.45 265.99 205.023 264.593 205.014L243.224 204.927C242.115 204.922 241.021 205.181 240.032 205.684C239.043 206.186 238.189 206.917 237.539 207.816L231.753 215.827L193.477 240.361Z" fill="#3F3D56"/>
<path d="M216.513 289.351L211.673 299.705L208.368 306.778L202.684 336.53L199.838 339.549L197.4 328.86L171.881 334.524C171.044 329.875 171.657 334.682 171.14 329.581C171.286 329.435 171.439 329.29 171.591 329.144C171.999 328.766 172.341 328.41 172.334 328.068C172.043 310.474 172.916 280.533 180.209 262.394C181.351 259.432 182.857 256.624 184.692 254.033C184.838 253.837 184.976 253.64 185.114 253.444C188.477 248.736 190.602 244.101 193.615 240.805V240.798C193.634 240.783 193.651 240.766 193.666 240.747C193.677 240.742 193.687 240.734 193.695 240.725L214.395 229.753L215.283 254.695L215.916 272.624L216.513 289.351Z" fill="#3F3D56"/>
<path d="M291.15 292.292L297.196 305.224L299.306 309.728L304.989 339.477L307.825 342.489L310.269 331.802L311.417 331.567L332.126 327.279L338.162 346.443C339.523 344.177 340.059 341.511 339.68 338.896C339.3 336.28 338.029 333.875 336.082 332.089C335.669 331.716 335.326 331.353 335.336 331.009C335.679 310.316 334.413 272.531 322.979 256.98C319.348 252.044 317.169 247.129 313.999 243.695C313.989 243.685 313.989 243.675 313.979 243.675L306.265 231.047L305.794 230.272L305.264 230.007L291.15 292.292Z" fill="#3F3D56"/>
<path d="M254.525 198.847C270.226 198.847 282.954 186.123 282.954 170.427C282.954 154.731 270.226 142.007 254.525 142.007C238.825 142.007 226.097 154.731 226.097 170.427C226.097 186.123 238.825 198.847 254.525 198.847Z" fill="#FFB6B6"/>
<path d="M278.304 170.353C276.26 164.58 279.751 162.723 281.753 162.516C280.792 158.786 276.902 149.915 267.882 145.3C262.859 142.569 258.93 141.477 254.659 141.624C252.077 141.712 249.814 142.168 246.988 142.945C241.789 144.374 237.47 147.15 234.161 150.55C230.932 153.867 228.988 157.706 228.048 160.131C226.269 163.919 225.418 170.218 226.742 176.509C227.432 179.789 228.779 183.067 230.753 185.986C233.232 189.65 236.377 192.711 239.956 194.882C246.019 198.559 251.874 199.084 256.756 198.77C265.672 197.993 266.926 196.111 270.788 193.753C278.505 188.692 276.099 180.725 275.498 178.069C280.709 178.27 280.759 177.568 278.304 170.353Z" fill="#2F2E41" fill-opacity="0.3"/>
<path d="M355.073 294.316C355.067 295.432 355.054 296.995 355.003 298.927C354.997 299.195 354.99 299.469 354.984 299.75C354.901 303.303 354.818 306.281 354.684 309.592C354.678 309.821 354.671 310.044 354.658 310.274C354.48 314.892 354.199 320.269 353.714 328.784C352.815 344.513 351.245 330.946 349.669 336.463C349.593 336.737 349.51 337.063 349.433 337.445C349.195 338.834 348.792 340.189 348.234 341.483C347.398 341.98 346.537 342.459 345.688 342.937C343.27 344.283 340.814 345.578 338.338 346.809C336.947 347.498 335.55 348.174 334.146 348.824C333.923 348.926 333.706 349.028 333.489 349.124C326.302 352.448 318.894 355.274 311.318 357.582C309.838 358.028 308.364 358.462 306.871 358.864C305.315 359.297 303.758 359.705 302.182 360.088C290.459 362.965 278.463 364.588 266.396 364.929C264.769 364.98 263.129 364.999 261.483 364.999C260.667 364.999 259.863 364.993 259.046 364.987C258.797 364.987 258.549 364.98 258.3 364.974C257.579 364.955 256.832 364.942 256.079 364.923C241.519 364.469 227.078 362.147 213.109 358.015L212.516 357.843C211.597 357.562 210.685 357.288 209.773 356.995C205.562 355.662 201.412 354.169 197.325 352.517C194.205 351.261 191.121 349.913 188.074 348.473C188.046 348.466 188.02 348.453 187.997 348.435C187.359 348.142 186.715 347.836 186.077 347.523C185.994 347.478 185.905 347.434 185.815 347.389C183.435 346.228 181.081 345.012 178.752 343.741C176.794 339.244 174.038 338.383 172.328 334.428C171.83 333.254 171.47 332.025 171.256 330.767C171.256 330.755 171.249 330.742 171.249 330.723C171.428 333.095 170.49 326.513 171.243 330.697C171.237 330.621 171.23 330.538 171.224 330.442C171.205 330.212 171.179 329.932 171.141 329.581C168.953 308.22 169.093 283.792 168.142 263.662C168.078 262.361 168.013 261.115 167.945 259.924C167.925 259.529 167.9 259.14 167.874 258.757C167.919 258.642 167.97 258.521 168.027 258.406C168.04 258.373 168.055 258.341 168.072 258.311C168.091 258.271 168.112 258.233 168.136 258.196C168.149 258.177 168.168 258.151 168.181 258.132C168.19 258.11 168.201 258.089 168.212 258.068C168.27 257.979 168.334 257.883 168.404 257.794C168.436 257.756 168.461 257.724 168.493 257.692C168.515 257.659 168.541 257.629 168.57 257.603C168.589 257.572 168.613 257.544 168.64 257.52C168.665 257.494 168.691 257.462 168.723 257.43C168.737 257.41 168.754 257.393 168.774 257.379C168.824 257.321 168.88 257.268 168.94 257.22C169.167 257.01 169.411 256.819 169.667 256.646C169.756 256.588 169.852 256.531 169.941 256.467C170.584 256.083 171.261 255.758 171.964 255.498C172.206 255.408 172.449 255.326 172.71 255.236C172.806 255.211 172.895 255.179 172.991 255.147C173.132 255.102 173.272 255.058 173.419 255.026C174.146 254.809 174.931 254.624 175.779 254.452C175.881 254.433 175.99 254.413 176.098 254.388C176.251 254.356 176.411 254.331 176.57 254.305C176.787 254.267 177.011 254.228 177.234 254.19C179.129 253.89 181.279 253.667 183.652 253.52C183.876 253.508 184.099 253.495 184.322 253.482C184.584 253.469 184.845 253.457 185.113 253.444C185.337 253.431 185.566 253.425 185.796 253.418C186.019 253.406 186.249 253.399 186.485 253.393C187.129 253.374 187.793 253.355 188.469 253.342C190.396 253.304 192.425 253.316 194.556 253.361C195.545 253.387 196.553 253.412 197.587 253.457C197.657 253.457 197.72 253.463 197.784 253.463C198.684 253.495 199.59 253.533 200.521 253.584C201.172 253.616 201.829 253.648 202.486 253.686C203.105 253.725 203.731 253.763 204.362 253.808C204.853 253.833 205.345 253.871 205.842 253.903C206.263 253.935 206.685 253.967 207.106 253.992L207.68 254.031C207.992 254.056 208.305 254.075 208.624 254.107C209.326 254.165 210.028 254.222 210.742 254.279C211.45 254.343 212.171 254.407 212.892 254.471C213.613 254.535 214.341 254.605 215.068 254.675C215.145 254.681 215.215 254.688 215.285 254.694C215.948 254.764 216.612 254.828 217.282 254.898C217.435 254.911 217.595 254.924 217.748 254.943C218.386 255.007 219.038 255.082 219.682 255.151C219.88 255.172 220.077 255.193 220.275 255.214C220.78 255.269 221.278 255.317 221.786 255.377C222.456 255.453 223.139 255.523 223.802 255.613C224.319 255.67 224.836 255.727 225.353 255.791C226.163 255.887 226.986 255.989 227.809 256.097C228.122 256.136 228.434 256.174 228.747 256.218C231.095 256.512 233.468 256.837 235.88 257.175C239.536 257.692 243.249 258.253 246.988 258.859C250.733 259.465 254.499 260.105 258.287 260.779C259.244 260.951 260.201 261.123 261.164 261.302C261.598 261.385 262.032 261.468 262.466 261.551C263.206 261.685 263.946 261.825 264.686 261.965C265.426 262.106 266.166 262.246 266.906 262.393C267.787 262.565 268.674 262.737 269.554 262.909C275.354 264.057 281.121 265.282 286.748 266.564C287.674 266.774 288.599 266.991 289.517 267.202C291.355 267.629 293.175 268.063 294.979 268.503C295.477 268.618 295.968 268.739 296.459 268.86C297.684 269.166 298.909 269.472 300.115 269.785L300.325 269.842C301.212 270.059 302.08 270.282 302.948 270.512C304.996 271.048 307.01 271.59 308.99 272.139C310.304 272.502 311.603 272.87 312.888 273.242C314.808 273.797 316.69 274.358 318.521 274.926C318.974 275.066 319.427 275.206 319.874 275.34C321.214 275.755 322.535 276.176 323.817 276.597C324.838 276.929 325.833 277.267 326.816 277.605C327.798 277.943 328.762 278.281 329.706 278.619C330.312 278.836 330.912 279.065 331.511 279.282C332.373 279.601 333.221 279.92 334.051 280.239C334.306 280.335 334.555 280.437 334.804 280.532C334.963 280.602 335.116 280.66 335.269 280.724C335.569 280.845 335.875 280.96 336.169 281.081C336.469 281.196 336.762 281.317 337.056 281.444C337.343 281.559 337.636 281.68 337.917 281.802C338.204 281.916 338.485 282.038 338.766 282.165C339.002 282.261 339.231 282.363 339.455 282.465C339.908 282.663 340.361 282.86 340.801 283.064C341.018 283.167 341.235 283.262 341.452 283.364L341.949 283.594C342.019 283.632 342.09 283.664 342.16 283.696C342.319 283.772 342.485 283.855 342.645 283.932C343.015 284.104 343.378 284.289 343.736 284.461C344.214 284.704 344.68 284.946 345.127 285.182C345.58 285.424 346.02 285.667 346.441 285.903C346.511 285.941 346.575 285.979 346.645 286.018C346.741 286.069 346.836 286.126 346.932 286.177C347.257 286.362 347.57 286.553 347.883 286.738C348.495 287.115 349.076 287.485 349.618 287.855C349.739 287.937 349.854 288.02 349.975 288.097C350.377 288.384 350.76 288.665 351.117 288.952C351.117 288.958 351.117 288.958 351.124 288.958C351.245 289.047 351.36 289.143 351.475 289.232C351.57 289.321 351.673 289.398 351.768 289.487C352.1 289.774 352.406 290.049 352.687 290.329C352.781 290.416 352.871 290.507 352.955 290.604C352.992 290.634 353.026 290.668 353.057 290.706C353.185 290.833 353.299 290.961 353.408 291.088C353.425 291.106 353.44 291.125 353.453 291.146C353.606 291.324 353.746 291.503 353.88 291.681C353.944 291.771 354.014 291.86 354.071 291.949C354.148 292.058 354.225 292.173 354.288 292.281C354.346 292.37 354.397 292.466 354.448 292.555C354.583 292.785 354.699 293.026 354.792 293.276C354.864 293.445 354.922 293.62 354.965 293.799C355.013 293.968 355.049 294.141 355.073 294.316Z" fill="#2F2E41"/>
<path opacity="0.2" d="M355.073 294.316C355.067 295.432 355.054 296.995 355.003 298.927C354.997 299.195 354.984 299.469 354.977 299.75C354.914 302.461 354.818 305.809 354.684 309.592C354.678 309.821 354.671 310.044 354.658 310.274C354.48 314.892 354.199 320.269 353.714 328.784C352.815 344.512 351.245 330.946 349.669 336.463C345.292 333.771 340.495 330.952 335.365 328.057C334.44 327.534 333.506 327.008 332.564 326.481C322.305 320.76 310.846 314.764 298.884 308.826C298.411 308.59 297.933 308.354 297.461 308.125C270.058 294.584 240.148 281.412 215.917 272.623C211.24 270.927 206.774 269.396 202.576 268.05C193.733 265.224 186.09 263.247 180.207 262.393C174.082 261.5 169.852 261.818 168.142 263.662C168.078 262.361 168.013 261.115 167.944 259.924C167.919 259.529 167.893 259.14 167.868 258.757C167.907 258.652 167.958 258.552 168.008 258.451C168.015 258.436 168.02 258.421 168.027 258.406C168.04 258.373 168.055 258.341 168.072 258.31C168.091 258.271 168.112 258.233 168.136 258.196C168.157 258.15 168.182 258.108 168.212 258.068C168.27 257.979 168.334 257.883 168.404 257.794C168.455 257.727 168.511 257.663 168.57 257.602C168.589 257.572 168.613 257.544 168.64 257.52C168.665 257.494 168.691 257.462 168.723 257.43C168.736 257.41 168.754 257.393 168.774 257.379C168.824 257.321 168.88 257.268 168.94 257.22C169.167 257.01 169.411 256.819 169.667 256.646C169.756 256.588 169.852 256.531 169.941 256.467C170.584 256.083 171.261 255.758 171.964 255.498C172.206 255.408 172.449 255.325 172.71 255.236C172.806 255.211 172.895 255.179 172.991 255.147C173.132 255.102 173.272 255.058 173.419 255.026C174.146 254.809 174.931 254.624 175.779 254.452C176.034 254.401 176.302 254.35 176.57 254.305C176.787 254.267 177.011 254.228 177.234 254.19C179.129 253.89 181.279 253.667 183.652 253.52C183.876 253.508 184.099 253.495 184.322 253.482C184.584 253.469 184.845 253.457 185.113 253.444C185.337 253.431 185.566 253.425 185.796 253.418C186.019 253.406 186.249 253.399 186.485 253.393C187.129 253.374 187.793 253.355 188.469 253.342C190.396 253.31 192.425 253.323 194.556 253.367C195.545 253.386 196.553 253.418 197.586 253.463C197.65 253.463 197.72 253.469 197.784 253.469C198.684 253.495 199.596 253.54 200.521 253.584C201.172 253.616 201.829 253.648 202.486 253.686C203.105 253.724 203.731 253.763 204.362 253.807C204.853 253.833 205.345 253.871 205.842 253.903C206.263 253.935 206.685 253.967 207.106 253.992C207.61 254.031 208.114 254.069 208.624 254.107C209.326 254.165 210.028 254.222 210.742 254.279C211.45 254.343 212.171 254.407 212.892 254.471C213.613 254.535 214.341 254.605 215.068 254.675C215.145 254.681 215.215 254.688 215.285 254.694C215.948 254.764 216.612 254.828 217.282 254.898C220.995 255.274 224.817 255.715 228.747 256.218C231.095 256.518 233.472 256.839 235.88 257.181C239.536 257.698 243.249 258.259 246.988 258.859C250.733 259.465 254.499 260.105 258.287 260.779C259.244 260.951 260.201 261.123 261.164 261.302C262.338 261.519 263.512 261.74 264.686 261.965C265.426 262.105 266.166 262.246 266.906 262.393C267.787 262.565 268.674 262.737 269.554 262.909C275.354 264.057 281.121 265.282 286.749 266.564C287.674 266.774 288.599 266.991 289.517 267.202C291.355 267.629 293.175 268.063 294.979 268.503C295.477 268.624 295.968 268.745 296.459 268.866C297.69 269.173 298.909 269.479 300.115 269.785V269.791C300.185 269.804 300.255 269.823 300.325 269.842C301.206 270.066 302.08 270.289 302.948 270.518C304.996 271.054 307.01 271.594 308.99 272.138C310.304 272.508 311.605 272.872 312.888 273.242C314.808 273.803 316.69 274.364 318.521 274.926C318.974 275.066 319.427 275.206 319.874 275.34C321.214 275.761 322.528 276.18 323.817 276.597C324.838 276.929 325.833 277.267 326.816 277.605C327.798 277.943 328.762 278.281 329.706 278.619C330.318 278.836 330.918 279.059 331.511 279.276C332.379 279.595 333.221 279.914 334.051 280.239C334.306 280.335 334.555 280.437 334.804 280.532C335.269 280.711 335.722 280.896 336.169 281.081C336.469 281.196 336.762 281.317 337.056 281.444C337.343 281.559 337.636 281.68 337.917 281.802C338.204 281.916 338.485 282.038 338.766 282.165C339.002 282.261 339.231 282.363 339.455 282.465C339.908 282.663 340.361 282.86 340.801 283.064C341.018 283.166 341.235 283.262 341.452 283.364L341.949 283.594C342.019 283.632 342.09 283.664 342.16 283.696C342.702 283.951 343.225 284.206 343.736 284.461C344.214 284.704 344.68 284.946 345.127 285.182C345.656 285.463 346.16 285.737 346.645 286.018C346.741 286.069 346.836 286.126 346.932 286.177C347.257 286.362 347.57 286.553 347.883 286.738C348.495 287.115 349.076 287.485 349.618 287.854C350.154 288.224 350.652 288.588 351.117 288.952C351.117 288.958 351.117 288.958 351.124 288.958C351.347 289.136 351.564 289.315 351.768 289.487C352.1 289.774 352.406 290.049 352.687 290.329C352.781 290.416 352.871 290.507 352.955 290.603C352.992 290.634 353.026 290.668 353.057 290.706C353.191 290.852 353.325 290.999 353.453 291.146C353.606 291.324 353.746 291.503 353.88 291.681C353.944 291.771 354.014 291.86 354.072 291.949C354.148 292.058 354.225 292.173 354.288 292.281C354.346 292.37 354.397 292.466 354.448 292.555C354.583 292.785 354.699 293.026 354.792 293.276C354.862 293.446 354.92 293.621 354.965 293.799C355.013 293.968 355.049 294.141 355.073 294.316Z" fill="black"/>
</g>
<defs>
<filter id="filter0_d_151_140" x="0" y="0" width="518" height="383" filterUnits="userSpaceOnUse" color-interpolation-filters="sRGB">
<feFlood flood-opacity="0" result="BackgroundImageFix"/>
<feColorMatrix in="SourceAlpha" type="matrix" values="0 0 0 0 0 0 0 0 0 0 0 0 0 0 0 0 0 0 127 0" result="hardAlpha"/>
<feOffset dy="10"/>
<feGaussianBlur stdDeviation="4"/>
<feComposite in2="hardAlpha" operator="out"/>
<feColorMatrix type="matrix" values="0 0 0 0 0 0 0 0 0 0 0 0 0 0 0 0 0 0 0.04 0"/>
<feBlend mode="normal" in2="BackgroundImageFix" result="effect1_dropShadow_151_140"/>
<feBlend mode="normal" in="SourceGraphic" in2="effect1_dropShadow_151_140" result="shape"/>
</filter>
<clipPath id="clip0_151_140">
<rect width="502" height="365" fill="white" transform="translate(8)"/>
</clipPath>
</defs>
</svg>